<svg width="1024" height="172" viewBox="0 0 1024 172" fill="none" xmlns="http://www.w3.org/2000/svg">
<defs>
  <linearGradient id="sky" x1="0" y1="0" x2="0" y2="172" gradientUnits="userSpaceOnUse">
    <stop stop-color="#A9DDFC"/>
    <stop offset=".62" stop-color="#DDF1FC"/>
    <stop offset="1" stop-color="#F4F7F8"/>
  </linearGradient>
  <linearGradient id="glass" x1="0" y1="0" x2="0" y2="1">
    <stop stop-color="#7FB7D9"/>
    <stop offset="1" stop-color="#315B79"/>
  </linearGradient>
  <linearGradient id="front" x1="581" y1="66" x2="935" y2="143" gradientUnits="userSpaceOnUse">
    <stop stop-color="#F9FBFC"/>
    <stop offset="1" stop-color="#DDE5EA"/>
  </linearGradient>
  <filter id="soft" x="-10%" y="-20%" width="120%" height="150%">
    <feDropShadow dx="0" dy="5" stdDeviation="6" flood-color="#38566B" flood-opacity=".18"/>
  </filter>
</defs>
<rect width="1024" height="172" fill="url(#sky)"/>
<ellipse cx="813" cy="151" rx="246" ry="26" fill="#AAB9BE" fill-opacity=".22"/>
<path d="M0 145C173 139 329 143 475 146C667 149 832 139 1024 143V172H0V145Z" fill="#D4D9D8"/>
<path d="M0 151C188 146 354 151 526 153C705 155 870 148 1024 151V172H0V151Z" fill="#C8CFCE"/>
<g filter="url(#soft)">
  <path d="M555 75L928 65L984 91V148H555V75Z" fill="url(#front)" stroke="#C8D3D9"/>
  <path d="M555 75L928 65V84L555 92V75Z" fill="#FDFEFE"/>
  <path d="M928 65L984 91V148H928V65Z" fill="#CBD6DC"/>
  <rect x="590" y="95" width="84" height="53" fill="#173E61"/>
  <rect x="682" y="91" width="229" height="57" fill="#EDF2F4"/>
  <rect x="705" y="101" width="31" height="37" rx="1" fill="url(#glass)"/>
  <rect x="744" y="100" width="31" height="38" rx="1" fill="url(#glass)"/>
  <rect x="783" y="99" width="31" height="39" rx="1" fill="url(#glass)"/>
  <rect x="822" y="98" width="31" height="40" rx="1" fill="url(#glass)"/>
  <rect x="861" y="97" width="31" height="41" rx="1" fill="url(#glass)"/>
  <path d="M590 95H674V148H590V95Z" stroke="#2B5577" stroke-width="2"/>
  <path d="M632 95V148M590 121H674" stroke="#82A9C3" stroke-width="1"/>
  <rect x="542" y="70" width="20" height="78" fill="#1E79C7"/>
  <path d="M542 70L928 60L928 67L555 78L542 70Z" fill="#EAF2F6"/>
</g>
<g opacity=".75">
  <path d="M506 151C508 130 519 116 535 116C550 116 560 132 560 151H506Z" fill="#729783"/>
  <rect x="530" y="134" width="4" height="22" fill="#826B55"/>
  <path d="M949 151C951 129 963 114 979 114C995 114 1005 132 1005 151H949Z" fill="#6D927E"/>
  <rect x="976" y="133" width="4" height="23" fill="#826B55"/>
</g>
<path d="M458 151H1024" stroke="#F2F4F4" stroke-width="2"/>
<g opacity=".24" stroke="#FFFFFF" stroke-width="1">
  <path d="M76 34H277M128 52H344"/>
</g>
</svg>